<mxfile host="app.diagrams.net" modified="2024-04-07T20:32:11.855Z" agent="Mozilla/5.0 (Windows NT 10.0; Win64; x64) AppleWebKit/537.36 (KHTML, like Gecko) Chrome/123.0.0.0 Safari/537.36 Edg/123.0.0.0" etag="i6wO4wboGXJpZSQiw7aC" version="24.2.2" type="github">
  <diagram id="R2lEEEUBdFMjLlhIrx00" name="Page-1">
    <mxGraphModel dx="1756" dy="579" grid="1" gridSize="10" guides="1" tooltips="1" connect="1" arrows="1" fold="1" page="1" pageScale="1" pageWidth="850" pageHeight="1100" math="0" shadow="0" extFonts="Permanent Marker^https://fonts.googleapis.com/css?family=Permanent+Marker">
      <root>
        <mxCell id="0" />
        <mxCell id="1" parent="0" />
        <mxCell id="XMl1va9vYv1i2SkBQdN0-1" value="medico" style="rounded=0;whiteSpace=wrap;html=1;" parent="1" vertex="1">
          <mxGeometry x="-820" y="210" width="120" height="60" as="geometry" />
        </mxCell>
        <mxCell id="XMl1va9vYv1i2SkBQdN0-2" value="consulta" style="rounded=0;whiteSpace=wrap;html=1;" parent="1" vertex="1">
          <mxGeometry x="-340" y="220" width="120" height="60" as="geometry" />
        </mxCell>
        <mxCell id="XMl1va9vYv1i2SkBQdN0-3" value="paciente" style="rounded=0;whiteSpace=wrap;html=1;" parent="1" vertex="1">
          <mxGeometry x="-340" y="530" width="120" height="60" as="geometry" />
        </mxCell>
        <mxCell id="XMl1va9vYv1i2SkBQdN0-4" value="convenio" style="rounded=0;whiteSpace=wrap;html=1;" parent="1" vertex="1">
          <mxGeometry x="-820" y="530" width="120" height="60" as="geometry" />
        </mxCell>
        <mxCell id="XMl1va9vYv1i2SkBQdN0-5" value="" style="rhombus;whiteSpace=wrap;html=1;" parent="1" vertex="1">
          <mxGeometry x="-560" y="210" width="100" height="80" as="geometry" />
        </mxCell>
        <mxCell id="XMl1va9vYv1i2SkBQdN0-6" value="" style="rhombus;whiteSpace=wrap;html=1;" parent="1" vertex="1">
          <mxGeometry x="-330" y="370" width="100" height="80" as="geometry" />
        </mxCell>
        <mxCell id="XMl1va9vYv1i2SkBQdN0-7" value="" style="rhombus;whiteSpace=wrap;html=1;" parent="1" vertex="1">
          <mxGeometry x="-570" y="520" width="100" height="80" as="geometry" />
        </mxCell>
        <mxCell id="XMl1va9vYv1i2SkBQdN0-8" value="" style="endArrow=none;html=1;rounded=0;entryX=0;entryY=0.5;entryDx=0;entryDy=0;" parent="1" target="XMl1va9vYv1i2SkBQdN0-5" edge="1">
          <mxGeometry width="50" height="50" relative="1" as="geometry">
            <mxPoint x="-700" y="250" as="sourcePoint" />
            <mxPoint x="-650" y="200" as="targetPoint" />
          </mxGeometry>
        </mxCell>
        <mxCell id="XMl1va9vYv1i2SkBQdN0-10" value="" style="endArrow=none;html=1;rounded=0;entryX=0;entryY=0.5;entryDx=0;entryDy=0;" parent="1" target="XMl1va9vYv1i2SkBQdN0-2" edge="1">
          <mxGeometry width="50" height="50" relative="1" as="geometry">
            <mxPoint x="-460" y="250" as="sourcePoint" />
            <mxPoint x="-410" y="200" as="targetPoint" />
          </mxGeometry>
        </mxCell>
        <mxCell id="XMl1va9vYv1i2SkBQdN0-11" value="" style="endArrow=none;html=1;rounded=0;exitX=0.5;exitY=0;exitDx=0;exitDy=0;" parent="1" source="XMl1va9vYv1i2SkBQdN0-6" edge="1">
          <mxGeometry width="50" height="50" relative="1" as="geometry">
            <mxPoint x="-330" y="330" as="sourcePoint" />
            <mxPoint x="-280" y="280" as="targetPoint" />
          </mxGeometry>
        </mxCell>
        <mxCell id="XMl1va9vYv1i2SkBQdN0-12" value="" style="endArrow=none;html=1;rounded=0;exitX=0.5;exitY=0;exitDx=0;exitDy=0;" parent="1" source="XMl1va9vYv1i2SkBQdN0-3" edge="1">
          <mxGeometry width="50" height="50" relative="1" as="geometry">
            <mxPoint x="-330" y="500" as="sourcePoint" />
            <mxPoint x="-280" y="450" as="targetPoint" />
          </mxGeometry>
        </mxCell>
        <mxCell id="XMl1va9vYv1i2SkBQdN0-13" value="" style="endArrow=none;html=1;rounded=0;exitX=1;exitY=0.5;exitDx=0;exitDy=0;" parent="1" source="XMl1va9vYv1i2SkBQdN0-7" edge="1">
          <mxGeometry width="50" height="50" relative="1" as="geometry">
            <mxPoint x="-390" y="610" as="sourcePoint" />
            <mxPoint x="-340" y="560" as="targetPoint" />
          </mxGeometry>
        </mxCell>
        <mxCell id="XMl1va9vYv1i2SkBQdN0-14" value="" style="endArrow=none;html=1;rounded=0;entryX=0;entryY=0.5;entryDx=0;entryDy=0;" parent="1" target="XMl1va9vYv1i2SkBQdN0-7" edge="1">
          <mxGeometry width="50" height="50" relative="1" as="geometry">
            <mxPoint x="-700" y="560" as="sourcePoint" />
            <mxPoint x="-650" y="510" as="targetPoint" />
          </mxGeometry>
        </mxCell>
        <mxCell id="XMl1va9vYv1i2SkBQdN0-15" value="" style="endArrow=none;html=1;rounded=0;startArrow=oval;startFill=1;" parent="1" edge="1">
          <mxGeometry width="50" height="50" relative="1" as="geometry">
            <mxPoint x="-755" y="80" as="sourcePoint" />
            <mxPoint x="-800" y="80" as="targetPoint" />
          </mxGeometry>
        </mxCell>
        <mxCell id="XMl1va9vYv1i2SkBQdN0-17" value="CRM(PK)" style="text;html=1;align=center;verticalAlign=middle;whiteSpace=wrap;rounded=0;" parent="1" vertex="1">
          <mxGeometry x="-750" y="70" width="70" height="20" as="geometry" />
        </mxCell>
        <mxCell id="XMl1va9vYv1i2SkBQdN0-19" value="" style="endArrow=none;html=1;rounded=0;startArrow=oval;startFill=0;" parent="1" edge="1">
          <mxGeometry width="50" height="50" relative="1" as="geometry">
            <mxPoint x="-755" y="100" as="sourcePoint" />
            <mxPoint x="-800" y="100" as="targetPoint" />
          </mxGeometry>
        </mxCell>
        <mxCell id="XMl1va9vYv1i2SkBQdN0-20" value="" style="endArrow=none;html=1;rounded=0;startArrow=oval;startFill=0;" parent="1" edge="1">
          <mxGeometry width="50" height="50" relative="1" as="geometry">
            <mxPoint x="-755" y="120" as="sourcePoint" />
            <mxPoint x="-800" y="120" as="targetPoint" />
          </mxGeometry>
        </mxCell>
        <mxCell id="XMl1va9vYv1i2SkBQdN0-21" value="" style="endArrow=none;html=1;rounded=0;startArrow=oval;startFill=0;" parent="1" edge="1">
          <mxGeometry width="50" height="50" relative="1" as="geometry">
            <mxPoint x="-755" y="139.5" as="sourcePoint" />
            <mxPoint x="-800" y="139.5" as="targetPoint" />
          </mxGeometry>
        </mxCell>
        <mxCell id="XMl1va9vYv1i2SkBQdN0-22" value="Especialidade" style="text;html=1;align=center;verticalAlign=middle;whiteSpace=wrap;rounded=0;" parent="1" vertex="1">
          <mxGeometry x="-750" y="90" width="90" height="20" as="geometry" />
        </mxCell>
        <mxCell id="XMl1va9vYv1i2SkBQdN0-23" value="Nome" style="text;html=1;align=center;verticalAlign=middle;whiteSpace=wrap;rounded=0;" parent="1" vertex="1">
          <mxGeometry x="-750" y="110" width="70" height="20" as="geometry" />
        </mxCell>
        <mxCell id="XMl1va9vYv1i2SkBQdN0-24" value="Telefone" style="text;html=1;align=center;verticalAlign=middle;whiteSpace=wrap;rounded=0;" parent="1" vertex="1">
          <mxGeometry x="-750" y="130" width="70" height="20" as="geometry" />
        </mxCell>
        <mxCell id="XMl1va9vYv1i2SkBQdN0-25" value="" style="endArrow=none;html=1;rounded=0;startArrow=oval;startFill=0;" parent="1" edge="1">
          <mxGeometry width="50" height="50" relative="1" as="geometry">
            <mxPoint x="-755" y="159.5" as="sourcePoint" />
            <mxPoint x="-800" y="159.5" as="targetPoint" />
          </mxGeometry>
        </mxCell>
        <mxCell id="XMl1va9vYv1i2SkBQdN0-26" value="Email" style="text;html=1;align=center;verticalAlign=middle;whiteSpace=wrap;rounded=0;" parent="1" vertex="1">
          <mxGeometry x="-750" y="150" width="70" height="20" as="geometry" />
        </mxCell>
        <mxCell id="XMl1va9vYv1i2SkBQdN0-27" value="" style="endArrow=none;html=1;rounded=0;startArrow=oval;startFill=0;" parent="1" edge="1">
          <mxGeometry width="50" height="50" relative="1" as="geometry">
            <mxPoint x="-755" y="179.5" as="sourcePoint" />
            <mxPoint x="-800" y="179.5" as="targetPoint" />
          </mxGeometry>
        </mxCell>
        <mxCell id="XMl1va9vYv1i2SkBQdN0-28" value="Endereco" style="text;html=1;align=center;verticalAlign=middle;whiteSpace=wrap;rounded=0;" parent="1" vertex="1">
          <mxGeometry x="-750" y="170" width="70" height="20" as="geometry" />
        </mxCell>
        <mxCell id="XMl1va9vYv1i2SkBQdN0-29" value="" style="endArrow=none;html=1;rounded=0;exitX=0.167;exitY=0;exitDx=0;exitDy=0;exitPerimeter=0;" parent="1" source="XMl1va9vYv1i2SkBQdN0-1" edge="1">
          <mxGeometry width="50" height="50" relative="1" as="geometry">
            <mxPoint x="-850" y="80" as="sourcePoint" />
            <mxPoint x="-800" y="80" as="targetPoint" />
          </mxGeometry>
        </mxCell>
        <mxCell id="XMl1va9vYv1i2SkBQdN0-49" value="" style="group" parent="1" vertex="1" connectable="0">
          <mxGeometry x="-650" y="50" width="120" height="140" as="geometry" />
        </mxCell>
        <mxCell id="XMl1va9vYv1i2SkBQdN0-30" value="" style="endArrow=none;html=1;rounded=0;startArrow=oval;startFill=0;" parent="XMl1va9vYv1i2SkBQdN0-49" edge="1">
          <mxGeometry width="50" height="50" relative="1" as="geometry">
            <mxPoint x="42.857142857142854" y="29.499999999999996" as="sourcePoint" />
            <mxPoint y="29.499999999999996" as="targetPoint" />
          </mxGeometry>
        </mxCell>
        <mxCell id="XMl1va9vYv1i2SkBQdN0-31" value="" style="endArrow=none;html=1;rounded=0;startArrow=oval;startFill=0;" parent="XMl1va9vYv1i2SkBQdN0-49" edge="1">
          <mxGeometry width="50" height="50" relative="1" as="geometry">
            <mxPoint x="42.857142857142854" y="49.5" as="sourcePoint" />
            <mxPoint y="50" as="targetPoint" />
          </mxGeometry>
        </mxCell>
        <mxCell id="XMl1va9vYv1i2SkBQdN0-33" value="" style="endArrow=none;html=1;rounded=0;startArrow=oval;startFill=0;" parent="XMl1va9vYv1i2SkBQdN0-49" edge="1">
          <mxGeometry width="50" height="50" relative="1" as="geometry">
            <mxPoint x="42.857142857142854" y="109.5" as="sourcePoint" />
            <mxPoint y="109.5" as="targetPoint" />
          </mxGeometry>
        </mxCell>
        <mxCell id="XMl1va9vYv1i2SkBQdN0-34" value="" style="endArrow=none;html=1;rounded=0;startArrow=oval;startFill=0;" parent="XMl1va9vYv1i2SkBQdN0-49" edge="1">
          <mxGeometry width="50" height="50" relative="1" as="geometry">
            <mxPoint x="42.857142857142854" y="69.5" as="sourcePoint" />
            <mxPoint y="69.5" as="targetPoint" />
          </mxGeometry>
        </mxCell>
        <mxCell id="XMl1va9vYv1i2SkBQdN0-35" value="" style="endArrow=none;html=1;rounded=0;startArrow=oval;startFill=0;" parent="XMl1va9vYv1i2SkBQdN0-49" edge="1">
          <mxGeometry width="50" height="50" relative="1" as="geometry">
            <mxPoint x="42.857142857142854" y="89.5" as="sourcePoint" />
            <mxPoint y="89.5" as="targetPoint" />
          </mxGeometry>
        </mxCell>
        <mxCell id="XMl1va9vYv1i2SkBQdN0-36" value="" style="endArrow=none;html=1;rounded=0;startArrow=oval;startFill=0;" parent="XMl1va9vYv1i2SkBQdN0-49" edge="1">
          <mxGeometry width="50" height="50" relative="1" as="geometry">
            <mxPoint x="42.857142857142854" y="129.5" as="sourcePoint" />
            <mxPoint y="129.5" as="targetPoint" />
          </mxGeometry>
        </mxCell>
        <mxCell id="XMl1va9vYv1i2SkBQdN0-39" value="numero" style="text;html=1;align=center;verticalAlign=middle;whiteSpace=wrap;rounded=0;" parent="XMl1va9vYv1i2SkBQdN0-49" vertex="1">
          <mxGeometry x="47.61904761904762" y="19" width="47.61904761904762" height="21" as="geometry" />
        </mxCell>
        <mxCell id="XMl1va9vYv1i2SkBQdN0-40" value="complemento" style="text;html=1;align=center;verticalAlign=middle;whiteSpace=wrap;rounded=0;" parent="XMl1va9vYv1i2SkBQdN0-49" vertex="1">
          <mxGeometry x="47.61904761904762" y="39" width="72.38095238095238" height="21" as="geometry" />
        </mxCell>
        <mxCell id="XMl1va9vYv1i2SkBQdN0-41" value="bairro" style="text;html=1;align=center;verticalAlign=middle;whiteSpace=wrap;rounded=0;" parent="XMl1va9vYv1i2SkBQdN0-49" vertex="1">
          <mxGeometry x="47.61904761904762" y="58.99999999999999" width="47.61904761904762" height="21" as="geometry" />
        </mxCell>
        <mxCell id="XMl1va9vYv1i2SkBQdN0-42" value="CEP" style="text;html=1;align=center;verticalAlign=middle;whiteSpace=wrap;rounded=0;" parent="XMl1va9vYv1i2SkBQdN0-49" vertex="1">
          <mxGeometry x="47.61904761904762" y="79" width="47.61904761904762" height="21" as="geometry" />
        </mxCell>
        <mxCell id="XMl1va9vYv1i2SkBQdN0-43" value="cidade" style="text;html=1;align=center;verticalAlign=middle;whiteSpace=wrap;rounded=0;" parent="XMl1va9vYv1i2SkBQdN0-49" vertex="1">
          <mxGeometry x="47.61904761904762" y="99" width="47.61904761904762" height="21" as="geometry" />
        </mxCell>
        <mxCell id="XMl1va9vYv1i2SkBQdN0-32" value="" style="endArrow=none;html=1;rounded=0;startArrow=oval;startFill=0;" parent="XMl1va9vYv1i2SkBQdN0-49" edge="1">
          <mxGeometry width="50" height="50" relative="1" as="geometry">
            <mxPoint x="42.857142857142854" y="10" as="sourcePoint" />
            <mxPoint y="10" as="targetPoint" />
          </mxGeometry>
        </mxCell>
        <mxCell id="XMl1va9vYv1i2SkBQdN0-38" value="rua" style="text;html=1;align=center;verticalAlign=middle;whiteSpace=wrap;rounded=0;" parent="XMl1va9vYv1i2SkBQdN0-49" vertex="1">
          <mxGeometry x="47.61904761904762" width="47.61904761904762" height="20" as="geometry" />
        </mxCell>
        <mxCell id="XMl1va9vYv1i2SkBQdN0-44" value="estado" style="text;html=1;align=center;verticalAlign=middle;whiteSpace=wrap;rounded=0;" parent="XMl1va9vYv1i2SkBQdN0-49" vertex="1">
          <mxGeometry x="47.61904761904762" y="119" width="47.61904761904762" height="21" as="geometry" />
        </mxCell>
        <mxCell id="XMl1va9vYv1i2SkBQdN0-45" value="" style="endArrow=none;html=1;rounded=0;" parent="XMl1va9vYv1i2SkBQdN0-49" edge="1">
          <mxGeometry width="50" height="50" relative="1" as="geometry">
            <mxPoint y="130" as="sourcePoint" />
            <mxPoint y="9" as="targetPoint" />
          </mxGeometry>
        </mxCell>
        <mxCell id="XMl1va9vYv1i2SkBQdN0-50" value="" style="endArrow=none;html=1;rounded=0;exitX=1;exitY=0.5;exitDx=0;exitDy=0;" parent="1" source="XMl1va9vYv1i2SkBQdN0-28" edge="1">
          <mxGeometry width="50" height="50" relative="1" as="geometry">
            <mxPoint x="-700" y="230" as="sourcePoint" />
            <mxPoint x="-650" y="180" as="targetPoint" />
          </mxGeometry>
        </mxCell>
        <mxCell id="XMl1va9vYv1i2SkBQdN0-51" value="" style="endArrow=none;html=1;rounded=0;startArrow=oval;startFill=1;" parent="1" edge="1">
          <mxGeometry width="50" height="50" relative="1" as="geometry">
            <mxPoint x="-295" y="114" as="sourcePoint" />
            <mxPoint x="-340" y="114" as="targetPoint" />
          </mxGeometry>
        </mxCell>
        <mxCell id="XMl1va9vYv1i2SkBQdN0-52" value="ID consulta" style="text;html=1;align=center;verticalAlign=middle;whiteSpace=wrap;rounded=0;" parent="1" vertex="1">
          <mxGeometry x="-290" y="104.5" width="70" height="20" as="geometry" />
        </mxCell>
        <mxCell id="XMl1va9vYv1i2SkBQdN0-53" value="" style="endArrow=none;html=1;rounded=0;startArrow=oval;startFill=0;" parent="1" edge="1">
          <mxGeometry width="50" height="50" relative="1" as="geometry">
            <mxPoint x="-295" y="159.5" as="sourcePoint" />
            <mxPoint x="-340" y="159.5" as="targetPoint" />
          </mxGeometry>
        </mxCell>
        <mxCell id="XMl1va9vYv1i2SkBQdN0-54" value="Data e horário" style="text;html=1;align=center;verticalAlign=middle;whiteSpace=wrap;rounded=0;" parent="1" vertex="1">
          <mxGeometry x="-300" y="150" width="70" height="20" as="geometry" />
        </mxCell>
        <mxCell id="w4AAAETD3FH_SRSaghTv-1" value="" style="endArrow=none;html=1;rounded=0;exitX=0;exitY=0;exitDx=0;exitDy=0;" edge="1" parent="1" source="XMl1va9vYv1i2SkBQdN0-2">
          <mxGeometry width="50" height="50" relative="1" as="geometry">
            <mxPoint x="-350" y="220" as="sourcePoint" />
            <mxPoint x="-340" y="115" as="targetPoint" />
          </mxGeometry>
        </mxCell>
        <mxCell id="w4AAAETD3FH_SRSaghTv-2" value="" style="endArrow=none;html=1;rounded=0;startArrow=oval;startFill=1;" edge="1" parent="1">
          <mxGeometry width="50" height="50" relative="1" as="geometry">
            <mxPoint x="-235" y="650" as="sourcePoint" />
            <mxPoint x="-280" y="650" as="targetPoint" />
          </mxGeometry>
        </mxCell>
        <mxCell id="w4AAAETD3FH_SRSaghTv-3" value="CPF(PK)" style="text;html=1;align=center;verticalAlign=middle;whiteSpace=wrap;rounded=0;" vertex="1" parent="1">
          <mxGeometry x="-230" y="640" width="70" height="20" as="geometry" />
        </mxCell>
        <mxCell id="w4AAAETD3FH_SRSaghTv-4" value="" style="endArrow=none;html=1;rounded=0;startArrow=oval;startFill=0;" edge="1" parent="1">
          <mxGeometry width="50" height="50" relative="1" as="geometry">
            <mxPoint x="-235" y="670" as="sourcePoint" />
            <mxPoint x="-280" y="670" as="targetPoint" />
          </mxGeometry>
        </mxCell>
        <mxCell id="w4AAAETD3FH_SRSaghTv-5" value="" style="endArrow=none;html=1;rounded=0;startArrow=oval;startFill=0;" edge="1" parent="1">
          <mxGeometry width="50" height="50" relative="1" as="geometry">
            <mxPoint x="-235" y="690" as="sourcePoint" />
            <mxPoint x="-280" y="690" as="targetPoint" />
          </mxGeometry>
        </mxCell>
        <mxCell id="w4AAAETD3FH_SRSaghTv-6" value="" style="endArrow=none;html=1;rounded=0;startArrow=oval;startFill=0;" edge="1" parent="1">
          <mxGeometry width="50" height="50" relative="1" as="geometry">
            <mxPoint x="-235" y="709.5" as="sourcePoint" />
            <mxPoint x="-280" y="709.5" as="targetPoint" />
          </mxGeometry>
        </mxCell>
        <mxCell id="w4AAAETD3FH_SRSaghTv-7" value="Nome" style="text;html=1;align=center;verticalAlign=middle;whiteSpace=wrap;rounded=0;" vertex="1" parent="1">
          <mxGeometry x="-230" y="660" width="75" height="20" as="geometry" />
        </mxCell>
        <mxCell id="w4AAAETD3FH_SRSaghTv-8" value="Telefone" style="text;html=1;align=center;verticalAlign=middle;whiteSpace=wrap;rounded=0;" vertex="1" parent="1">
          <mxGeometry x="-230" y="680" width="70" height="20" as="geometry" />
        </mxCell>
        <mxCell id="w4AAAETD3FH_SRSaghTv-9" value="Email" style="text;html=1;align=center;verticalAlign=middle;whiteSpace=wrap;rounded=0;" vertex="1" parent="1">
          <mxGeometry x="-230" y="700" width="70" height="20" as="geometry" />
        </mxCell>
        <mxCell id="w4AAAETD3FH_SRSaghTv-10" value="" style="endArrow=none;html=1;rounded=0;startArrow=oval;startFill=0;" edge="1" parent="1">
          <mxGeometry width="50" height="50" relative="1" as="geometry">
            <mxPoint x="-235" y="729.5" as="sourcePoint" />
            <mxPoint x="-280" y="729.5" as="targetPoint" />
          </mxGeometry>
        </mxCell>
        <mxCell id="w4AAAETD3FH_SRSaghTv-11" value="Endereco" style="text;html=1;align=center;verticalAlign=middle;whiteSpace=wrap;rounded=0;" vertex="1" parent="1">
          <mxGeometry x="-230" y="720" width="70" height="20" as="geometry" />
        </mxCell>
        <mxCell id="w4AAAETD3FH_SRSaghTv-30" value="" style="endArrow=none;html=1;rounded=0;" edge="1" parent="1" source="w4AAAETD3FH_SRSaghTv-11">
          <mxGeometry width="50" height="50" relative="1" as="geometry">
            <mxPoint x="-160" y="729.5" as="sourcePoint" />
            <mxPoint x="-130" y="729.5" as="targetPoint" />
          </mxGeometry>
        </mxCell>
        <mxCell id="w4AAAETD3FH_SRSaghTv-31" value="" style="endArrow=none;html=1;rounded=0;" edge="1" parent="1">
          <mxGeometry width="50" height="50" relative="1" as="geometry">
            <mxPoint x="-280" y="730" as="sourcePoint" />
            <mxPoint x="-280" y="590" as="targetPoint" />
          </mxGeometry>
        </mxCell>
        <mxCell id="w4AAAETD3FH_SRSaghTv-15" value="" style="endArrow=none;html=1;rounded=0;startArrow=oval;startFill=0;" edge="1" parent="1">
          <mxGeometry width="50" height="50" relative="1" as="geometry">
            <mxPoint x="-87.14285714285714" y="629.5" as="sourcePoint" />
            <mxPoint x="-130" y="629.5" as="targetPoint" />
          </mxGeometry>
        </mxCell>
        <mxCell id="w4AAAETD3FH_SRSaghTv-16" value="" style="endArrow=none;html=1;rounded=0;startArrow=oval;startFill=0;" edge="1" parent="1">
          <mxGeometry width="50" height="50" relative="1" as="geometry">
            <mxPoint x="-87.14285714285714" y="649.5" as="sourcePoint" />
            <mxPoint x="-130" y="650" as="targetPoint" />
          </mxGeometry>
        </mxCell>
        <mxCell id="w4AAAETD3FH_SRSaghTv-17" value="" style="endArrow=none;html=1;rounded=0;startArrow=oval;startFill=0;" edge="1" parent="1">
          <mxGeometry width="50" height="50" relative="1" as="geometry">
            <mxPoint x="-87.14285714285714" y="709.5" as="sourcePoint" />
            <mxPoint x="-130" y="709.5" as="targetPoint" />
          </mxGeometry>
        </mxCell>
        <mxCell id="w4AAAETD3FH_SRSaghTv-18" value="" style="endArrow=none;html=1;rounded=0;startArrow=oval;startFill=0;" edge="1" parent="1">
          <mxGeometry width="50" height="50" relative="1" as="geometry">
            <mxPoint x="-87.14285714285714" y="669.5" as="sourcePoint" />
            <mxPoint x="-130" y="669.5" as="targetPoint" />
          </mxGeometry>
        </mxCell>
        <mxCell id="w4AAAETD3FH_SRSaghTv-19" value="" style="endArrow=none;html=1;rounded=0;startArrow=oval;startFill=0;" edge="1" parent="1">
          <mxGeometry width="50" height="50" relative="1" as="geometry">
            <mxPoint x="-87.14285714285714" y="689.5" as="sourcePoint" />
            <mxPoint x="-130" y="689.5" as="targetPoint" />
          </mxGeometry>
        </mxCell>
        <mxCell id="w4AAAETD3FH_SRSaghTv-20" value="" style="endArrow=none;html=1;rounded=0;startArrow=oval;startFill=0;" edge="1" parent="1">
          <mxGeometry width="50" height="50" relative="1" as="geometry">
            <mxPoint x="-87.14285714285714" y="729.5" as="sourcePoint" />
            <mxPoint x="-130" y="729.5" as="targetPoint" />
          </mxGeometry>
        </mxCell>
        <mxCell id="w4AAAETD3FH_SRSaghTv-21" value="numero" style="text;html=1;align=center;verticalAlign=middle;whiteSpace=wrap;rounded=0;labelPosition=center;verticalLabelPosition=middle;" vertex="1" parent="1">
          <mxGeometry x="-72.00095238095238" y="619" width="47.61904761904762" height="21" as="geometry" />
        </mxCell>
        <mxCell id="w4AAAETD3FH_SRSaghTv-22" value="complemento" style="text;html=1;align=center;verticalAlign=middle;whiteSpace=wrap;rounded=0;labelPosition=center;verticalLabelPosition=middle;" vertex="1" parent="1">
          <mxGeometry x="-72.00095238095238" y="659" width="72.38095238095238" height="21" as="geometry" />
        </mxCell>
        <mxCell id="w4AAAETD3FH_SRSaghTv-23" value="bairro" style="text;html=1;align=center;verticalAlign=middle;whiteSpace=wrap;rounded=0;labelPosition=center;verticalLabelPosition=middle;" vertex="1" parent="1">
          <mxGeometry x="-72" y="639" width="42" height="21" as="geometry" />
        </mxCell>
        <mxCell id="w4AAAETD3FH_SRSaghTv-24" value="CEP" style="text;html=1;align=center;verticalAlign=middle;whiteSpace=wrap;rounded=0;labelPosition=center;verticalLabelPosition=middle;" vertex="1" parent="1">
          <mxGeometry x="-72.00095238095238" y="680" width="47.61904761904762" height="21" as="geometry" />
        </mxCell>
        <mxCell id="w4AAAETD3FH_SRSaghTv-25" value="cidade" style="text;html=1;align=center;verticalAlign=middle;whiteSpace=wrap;rounded=0;labelPosition=center;verticalLabelPosition=middle;" vertex="1" parent="1">
          <mxGeometry x="-72.00095238095238" y="700" width="47.61904761904762" height="21" as="geometry" />
        </mxCell>
        <mxCell id="w4AAAETD3FH_SRSaghTv-26" value="" style="endArrow=none;html=1;rounded=0;startArrow=oval;startFill=0;" edge="1" parent="1">
          <mxGeometry width="50" height="50" relative="1" as="geometry">
            <mxPoint x="-87.14285714285714" y="610" as="sourcePoint" />
            <mxPoint x="-130" y="610" as="targetPoint" />
          </mxGeometry>
        </mxCell>
        <mxCell id="w4AAAETD3FH_SRSaghTv-27" value="rua" style="text;html=1;align=center;verticalAlign=middle;whiteSpace=wrap;rounded=0;labelPosition=center;verticalLabelPosition=middle;" vertex="1" parent="1">
          <mxGeometry x="-72.00095238095238" y="600" width="47.61904761904762" height="20" as="geometry" />
        </mxCell>
        <mxCell id="w4AAAETD3FH_SRSaghTv-28" value="estado" style="text;html=1;align=center;verticalAlign=middle;whiteSpace=wrap;rounded=0;labelPosition=center;verticalLabelPosition=middle;" vertex="1" parent="1">
          <mxGeometry x="-72.00095238095238" y="719" width="47.61904761904762" height="21" as="geometry" />
        </mxCell>
        <mxCell id="w4AAAETD3FH_SRSaghTv-29" value="" style="endArrow=none;html=1;rounded=0;" edge="1" parent="1">
          <mxGeometry width="50" height="50" relative="1" as="geometry">
            <mxPoint x="-130" y="730" as="sourcePoint" />
            <mxPoint x="-130" y="609" as="targetPoint" />
          </mxGeometry>
        </mxCell>
      </root>
    </mxGraphModel>
  </diagram>
</mxfile>
